PathFileType	4	(X/Y/Z)	S1_rest_slow_left.trc
DataRate	CameraRate	NumFrames	NumMarkers	Units	OrigDataRate	OrigDataStartFrame	OrigNumFrames
250.00	250.00	10	18	mm	250.00	9046	36183
Frame#	Time	c7	r_should	l_should	clavicle	r_upa	r_elb_l	r_elb_m	r_low	r_wri_l	r_wri_m	r_met	l_upa	l_elb_l	l_elb_m	l_low	l_wri_l	l_wri_m	l_met
	X1	Y1	Z1	X2	Y2	Z2	X3	Y3	Z3	X4	Y4	Z4	X5	Y5	Z5	X6	Y6	Z6	X7	Y7	Z7	X8	Y8	Z8	X9	Y9	Z9	X10	Y10	Z10	X11	Y11	Z11	X12	Y12	Z12	X13	Y13	Z13	X14	Y14	Z14	X15	Y15	Z15	X16	Y16	Z16	X17	Y17	Z17	X18	Y18	Z18
9046	36.18000	987.44202	1422.09827	166.47766	1058.22144	1359.50378	328.18863	1009.55060	1365.14282	-9.05448	1116.00122	1298.94727	148.52524	1069.26208	1155.33948	405.46643	1064.55188	1073.14575	434.30716	996.78992	1038.68103	380.90192	1114.06616	952.25836	436.90045	1156.13892	838.29620	434.83670	1080.73840	819.89783	427.35608	1156.62170	762.49268	468.47034	1008.98468	1149.22925	-59.37468	1014.45758	1082.17932	-73.74493	1000.82733	1061.33911	23.56887	1115.37695	1089.74670	-60.62199	1206.35144	1130.90063	-42.82814	nan	nan	nan	1289.04102	1111.76331	-23.18222
9047	36.18400	987.39001	1422.09387	166.47551	1058.18347	1359.51135	328.18491	1009.49011	1365.13501	-9.05572	1115.96399	1298.95911	148.52783	1069.24561	1155.36035	405.47156	1064.54736	1073.15442	434.30762	996.78076	1038.67883	380.91534	1114.06299	952.28339	436.90100	1156.18298	838.24371	434.77826	1080.73962	819.90179	427.36203	1156.62598	762.51019	468.45877	1009.00146	1149.25085	-59.38113	1014.48431	1082.22913	-73.73227	1000.86597	1061.34790	23.62358	1115.31909	1090.04822	-60.57196	1206.11438	1131.45264	-42.83405	nan	nan	nan	1288.86353	1112.54822	-23.13241
9048	36.18800	987.33923	1422.09106	166.47113	1058.13757	1359.52637	328.18170	1009.42853	1365.12061	-9.05119	1115.92712	1298.97424	148.52637	1069.22827	1155.38403	405.46460	1064.53943	1073.16614	434.30682	996.77545	1038.67883	380.92749	1114.05811	952.29974	436.90170	1156.37048	837.94434	434.50882	1080.74219	819.90967	427.36896	1156.62952	762.52844	468.44943	1009.01404	1149.27002	-59.39375	1014.51947	1082.27893	-73.72168	1000.88214	1061.36060	23.67241	1115.26184	1090.34534	-60.51972	1205.92932	1131.96912	-42.77196	nan	nan	nan	1288.72510	1113.32166	-23.06455
9049	36.19200	987.28912	1422.08435	166.45811	1058.09570	1359.53992	328.17993	1009.36749	1365.10742	-9.05101	1115.88721	1298.99268	148.52666	1069.21765	1155.39478	405.45612	1064.54321	1073.18286	434.30856	996.76642	1038.67957	380.93802	1114.06445	952.31293	436.89587	1156.34155	838.02948	434.55936	1080.75024	819.91302	427.36249	1156.64001	762.54492	468.44003	1009.03223	1149.28674	-59.41758	1014.54425	1082.33154	-73.71118	1000.89825	1061.37915	23.72858	1115.20361	1090.64001	-60.47019	1205.74402	1132.49487	-42.70194	nan	nan	nan	1288.60693	1114.10815	-22.98982
9050	36.19600	987.23566	1422.07556	166.44833	1058.05139	1359.54565	328.17102	1009.30762	1365.09326	-9.05051	1115.84900	1299.00452	148.52278	1069.21130	1155.40479	405.45401	1064.54688	1073.19177	434.29477	996.76111	1038.67883	380.94611	1114.06970	952.32568	436.88089	1156.17578	838.35846	434.81821	1080.75696	819.92218	427.36441	1156.66260	762.56085	468.43726	1009.05072	1149.29846	-59.44189	1014.57288	1082.37622	-73.69776	1000.92969	1061.39990	23.78703	1115.15161	1090.92310	-60.40867	1205.54138	1133.03076	-42.65456	nan	nan	nan	1288.44873	1114.88770	-22.93120
9051	36.20000	987.18317	1422.06616	166.43475	1058.00586	1359.55139	328.16745	1009.24969	1365.07874	-9.05133	1115.81201	1299.00525	148.51407	1069.20032	1155.41724	405.44641	1064.54517	1073.19324	434.28467	996.75641	1038.67505	380.95255	1114.07678	952.33588	436.88065	1156.22754	838.29846	434.75266	1080.77087	819.92139	427.36191	1156.68372	762.57434	468.43622	1009.07135	1149.30200	-59.46469	1014.60669	1082.41626	-73.68803	1000.96204	1061.41028	23.84401	1115.10706	1091.19153	-60.34098	1205.33191	1133.55371	-42.63163	nan	nan	nan	1288.28113	1115.65479	-22.86707
9052	36.20400	987.13013	1422.05737	166.41844	1057.95886	1359.55676	328.16119	1009.19507	1365.06384	-9.04930	1115.77075	1299.00940	148.50903	1069.19275	1155.42346	405.43509	1064.54895	1073.18359	434.29095	996.74725	1038.66992	380.95999	1114.08447	952.33954	436.88080	1156.33398	838.13849	434.60785	1080.78101	819.91870	427.36539	1156.70593	762.58411	468.43622	1009.09912	1149.29993	-59.48583	1014.63696	1082.45776	-73.68291	1000.97229	1061.43237	23.88387	1115.06104	1091.45947	-60.30048	1205.12622	1134.07422	-42.61178	nan	nan	nan	1288.12695	1116.43164	-22.80222
9053	36.20800	987.07605	1422.04443	166.40672	1057.91296	1359.55872	328.16589	1009.14655	1365.04773	-9.04945	1115.72827	1299.01453	148.50607	1069.18091	1155.42627	405.43509	1064.54175	1073.18188	434.28635	996.73273	1038.66479	380.96323	1114.08752	952.34515	436.87604	1156.28552	838.25323	434.69363	1080.79358	819.92383	427.36859	1156.72778	762.59723	468.44037	1009.12762	1149.29626	-59.50237	1014.66760	1082.50049	-73.67665	1000.99158	1061.44836	23.92815	1115.00745	1091.74854	-60.28424	1204.91516	1134.60278	-42.58293	nan	nan	nan	1287.97656	1117.21277	-22.73535
9054	36.21200	987.02051	1422.03650	166.40019	1057.86279	1359.55969	328.16956	1009.09351	1365.03955	-9.04747	1115.68628	1299.01636	148.51048	1069.16284	1155.42883	405.42093	1064.53296	1073.18726	434.27832	996.72168	1038.65967	380.96475	1114.08923	952.34863	436.86859	1156.46155	837.99438	434.47903	1080.80908	819.93579	427.37180	1156.75012	762.61151	468.45209	1009.15387	1149.29370	-59.52341	1014.70184	1082.54175	-73.67169	1001.01257	1061.46545	23.98723	1114.95081	1092.03625	-60.26164	1204.70715	1135.14136	-42.54322	nan	nan	nan	1287.82825	1118.00342	-22.67051
9055	36.21600	986.96466	1422.03516	166.39871	1057.81421	1359.56714	328.17697	1009.03333	1365.03455	-9.04128	1115.64404	1299.02246	148.51730	1069.14307	1155.42786	405.40558	1064.52271	1073.19690	434.27875	996.71051	1038.65576	380.96207	1114.09119	952.36407	436.86838	1156.52209	837.94470	434.43155	1080.83777	819.94452	427.37433	1156.77661	762.63049	468.46616	1009.18091	1149.29663	-59.54948	1014.72223	1082.58228	-73.67480	1001.03296	1061.48242	24.04407	1114.89258	1092.33081	-60.22635	1204.49084	1135.69519	-42.49840	nan	nan	nan	1287.68774	1118.78198	-22.61158
